<svg xmlns="http://www.w3.org/2000/svg" viewBox="0 0 64 64" fill="none">
  <defs>
    <linearGradient id="bg" x1="12" y1="8" x2="52" y2="58" gradientUnits="userSpaceOnUse">
      <stop stop-color="#fdf6fa"/>
      <stop offset="1" stop-color="#f3e8f5"/>
    </linearGradient>
  </defs>
  <rect width="64" height="64" rx="16" fill="url(#bg)"/>
  <!-- ears -->
  <path
    fill="#fff3ee"
    stroke="#dfa9b2"
    stroke-width="2"
    stroke-linejoin="round"
    d="M18 30 22 10 32 24Z"
  />
  <path
    fill="#fff3ee"
    stroke="#dfa9b2"
    stroke-width="2"
    stroke-linejoin="round"
    d="M46 30 42 10 32 24Z"
  />
  <!-- head -->
  <ellipse cx="32" cy="38" rx="21" ry="19" fill="#fff5f0" stroke="#dfa9b2" stroke-width="2"/>
  <!-- cheeks -->
  <circle cx="22" cy="40" r="4.5" fill="#ffbfcf" opacity="0.55"/>
  <circle cx="42" cy="40" r="4.5" fill="#ffbfcf" opacity="0.55"/>
  <!-- eyes -->
  <ellipse cx="26" cy="35" rx="3.6" ry="4.4" fill="#42354a"/>
  <ellipse cx="38" cy="35" rx="3.6" ry="4.4" fill="#42354a"/>
  <ellipse cx="27" cy="33.5" rx="1.2" ry="1.6" fill="#fff" opacity="0.85"/>
  <ellipse cx="39" cy="33.5" rx="1.2" ry="1.6" fill="#fff" opacity="0.85"/>
  <!-- nose & mouth -->
  <path
    fill="#e8a0aa"
    d="M30 41c1.2 1 2.8 1 4 0 .8-.7 1.8-.7 2.4 0 .9 1.2.4 2.6-.9 3.2-.8.4-1.7.6-2.7.6s-1.9-.2-2.7-.6c-1.3-.6-1.8-2-.9-3.2Z"
  />
  <path
    stroke="#cfa3aa"
    stroke-width="1.8"
    stroke-linecap="round"
    d="M32 46v4M28 49q4 3 8 0"
  />
  <!-- whiskers -->
  <path stroke="#e5ccd1" stroke-width="1.6" stroke-linecap="round" d="M14 38H22M14 44H22M50 38H42M50 44H42"/>
</svg>
